<svg xmlns="http://www.w3.org/2000/svg" viewBox="0 0 300 300"><rect width="300" height="300" rx="83.64" ry="83.64" style="fill:#74b779"/><path d="M250.51 104.95c0 4.87-1.39 9.74-4.17 13.97a26.26 26.26 0 0 1-3.3 4.07L139.85 226.18c-4.97 4.97-11.52 7.47-18.04 7.47s-13.05-2.5-18.04-7.47l-46.81-46.83a23.955 23.955 0 0 1-3.3-4.09c-6.5-9.89-5.4-23.29 3.3-31.99 2.48-2.48 5.36-4.35 8.44-5.6 3.06-1.25 6.32-1.87 9.58-1.87 6.54 0 13.07 2.5 18.04 7.47l19.77 19.77c2.5 2.5 5.76 3.74 9.02 3.74s6.52-1.25 9.02-3.74l76.13-76.13c.93-.93 1.91-1.77 2.96-2.54a22.47 22.47 0 0 1 3.22-2.01c.72-.4 1.49-.74 2.25-1.05 3.08-1.25 6.34-1.87 9.6-1.87s6.52.62 9.6 1.87c.77.3 1.53.64 2.25 1.05 1.13.58 2.19 1.25 3.22 2.01s2.01 1.61 2.96 2.54a25.509 25.509 0 0 1 7.47 18.04Z" style="fill:#3a5c3d"/><path d="M250.51 91.86c0 4.87-1.39 9.74-4.17 13.97a26.26 26.26 0 0 1-3.3 4.07L139.85 213.09c-4.97 4.97-11.52 7.47-18.04 7.47s-13.05-2.5-18.04-7.47l-46.81-46.83a23.955 23.955 0 0 1-3.3-4.09c-6.5-9.89-5.4-23.29 3.3-31.99 2.48-2.48 5.36-4.35 8.44-5.6 3.06-1.25 6.32-1.87 9.58-1.87 6.54 0 13.07 2.5 18.04 7.47l19.77 19.77c2.5 2.5 5.76 3.74 9.02 3.74s6.52-1.25 9.02-3.74l76.13-76.13c.93-.93 1.91-1.77 2.96-2.54a22.47 22.47 0 0 1 3.22-2.01c.72-.4 1.49-.74 2.25-1.05 3.08-1.25 6.34-1.87 9.6-1.87s6.52.62 9.6 1.87c.77.3 1.53.64 2.25 1.05 1.13.58 2.19 1.25 3.22 2.01s2.01 1.61 2.96 2.54a25.509 25.509 0 0 1 7.47 18.04Z" style="fill:#fff"/></svg>