<svg xmlns="http://www.w3.org/2000/svg" viewBox="0 0 99.84 90.35"><path d="m96.09 35.44-51.21 51.2c-4.94 4.95-12.95 4.95-17.9 0L3.75 63.41a12.657 12.657 0 0 1-3.71-8.95c0-1.09.14-2.19.43-3.25.25.3.51.58.79.86l23.26 23.25c3.04 3.05 7.09 4.73 11.4 4.73s8.36-1.68 11.4-4.73l51.25-51.25c.28-.28.55-.56.8-.86 1.12 4.22.03 8.92-3.28 12.23Z" style="fill:#4d7c0f"/><path d="M99.84 12.67c0 2.42-.69 4.84-2.07 6.94-.47.71-1.01 1.39-1.64 2.02L44.88 72.88c-2.47 2.47-5.72 3.71-8.96 3.71s-6.48-1.24-8.96-3.71L3.71 49.62c-.63-.63-1.18-1.31-1.64-2.03-3.23-4.91-2.68-11.57 1.64-15.89 1.23-1.23 2.66-2.16 4.19-2.78 1.52-.62 3.14-.93 4.76-.93 3.25 0 6.49 1.24 8.96 3.71l9.82 9.82c1.24 1.24 2.86 1.86 4.48 1.86s3.24-.62 4.48-1.86L78.21 3.71c.46-.46.95-.88 1.47-1.26.51-.38 1.04-.71 1.6-1 .36-.2.74-.37 1.12-.52a12.698 12.698 0 0 1 9.54 0c.38.15.76.32 1.12.52.56.29 1.09.62 1.6 1s1 .8 1.47 1.26c2.47 2.48 3.71 5.72 3.71 8.96Z" style="fill:#84cc16"/></svg>